<svg width="32" height="32" viewBox="0 0 32 32" fill="none" xmlns="http://www.w3.org/2000/svg">
  <!-- Background -->
  <rect width="32" height="32" rx="6" fill="url(#gradient1)"/>

  <!-- Gradient Definition -->
  <defs>
    <linearGradient id="gradient1" x1="0%" y1="0%" x2="100%" y2="100%">
      <stop offset="0%" style="stop-color:#6366f1;stop-opacity:1" />
      <stop offset="100%" style="stop-color:#818cf8;stop-opacity:1" />
    </linearGradient>
  </defs>

  <!-- AI Symbol - Simple Network -->
  <g transform="translate(16, 16)">
    <!-- Center Node -->
    <circle cx="0" cy="0" r="2" fill="white"/>

    <!-- Network Nodes -->
    <circle cx="-5" cy="-5" r="1.5" fill="white"/>
    <circle cx="5" cy="-5" r="1.5" fill="white"/>
    <circle cx="-6" cy="0" r="1.5" fill="white"/>
    <circle cx="6" cy="0" r="1.5" fill="white"/>
    <circle cx="-5" cy="5" r="1.5" fill="white"/>
    <circle cx="5" cy="5" r="1.5" fill="white"/>

    <!-- Connection Lines -->
    <line x1="0" y1="0" x2="-5" y2="-5" stroke="white" stroke-width="1" opacity="0.6"/>
    <line x1="0" y1="0" x2="5" y2="-5" stroke="white" stroke-width="1" opacity="0.6"/>
    <line x1="0" y1="0" x2="-6" y2="0" stroke="white" stroke-width="1" opacity="0.6"/>
    <line x1="0" y1="0" x2="6" y2="0" stroke="white" stroke-width="1" opacity="0.6"/>
    <line x1="0" y1="0" x2="-5" y2="5" stroke="white" stroke-width="1" opacity="0.6"/>
    <line x1="0" y1="0" x2="5" y2="5" stroke="white" stroke-width="1" opacity="0.6"/>

    <!-- Camera Symbol -->
    <rect x="-4" y="-3" width="8" height="5" rx="1" fill="none" stroke="white" stroke-width="0.8"/>
    <circle cx="0" cy="-0.5" r="1.5" fill="none" stroke="white" stroke-width="0.8"/>
  </g>
</svg>
